<svg width="554" height="225" viewBox="0 0 554 225" fill="none" xmlns="http://www.w3.org/2000/svg">
<path opacity="0.3" d="M500.823 16.7655C524.733 31.588 542.223 54.8956 549.824 82.0653C557.425 109.235 554.582 138.282 541.858 163.444C529.135 188.607 507.461 208.047 481.136 217.908C454.81 227.77 425.756 227.333 399.737 216.683C373.718 206.033 352.633 185.95 340.667 160.416C328.7 134.881 326.725 105.762 335.133 78.8333C343.541 51.9046 361.718 29.134 386.059 15.0379C410.4 0.941761 439.126 -3.44999 466.54 2.73372L458.932 36.7653C440.017 32.4988 420.197 35.5289 403.403 45.2547C386.609 54.9805 374.067 70.6914 368.266 89.2712C362.464 107.851 363.827 127.942 372.084 145.56C380.34 163.178 394.888 177.035 412.84 184.382C430.793 191.73 450.839 192.032 469.002 185.228C487.166 178.424 502.12 165.011 510.899 147.65C519.677 130.288 521.639 110.247 516.394 91.5012C511.15 72.7551 499.083 56.6737 482.586 46.4467L500.823 16.7655Z" fill="#00429A"/>
<path opacity="0.3" d="M346.067 12.2202C363.572 23.0242 376.377 40.0128 381.942 59.8165C387.507 79.6201 385.426 100.792 376.111 119.133C366.795 137.473 350.927 151.643 331.653 158.831C312.379 166.019 291.107 165.7 272.057 157.938C253.007 150.176 237.571 135.537 228.809 116.925C220.048 98.3135 218.602 77.0887 224.758 57.4607C230.914 37.8327 244.222 21.2354 262.043 10.9609C279.864 0.686439 300.896 -2.51466 320.967 1.99258L315.397 26.7978C301.548 23.688 287.037 25.8966 274.741 32.9856C262.446 40.0747 253.263 51.5262 249.016 65.0688C244.768 78.6114 245.766 93.2557 251.811 106.097C257.856 118.938 268.507 129.039 281.651 134.394C294.795 139.75 309.471 139.97 322.77 135.011C336.068 130.051 347.016 120.275 353.444 107.62C359.871 94.9658 361.307 80.358 357.467 66.6942C353.628 53.0304 344.793 41.3088 332.715 33.8545L346.067 12.2202Z" fill="#1266D7"/>
<path opacity="0.3" d="M225.794 211.439C245.22 199.449 259.431 180.596 265.607 158.618C271.783 136.641 269.473 113.145 259.135 92.7917C248.797 72.438 231.187 56.7132 209.798 48.7363C188.408 40.7594 164.802 41.1132 143.661 49.7275C122.52 58.3418 105.39 74.5873 95.6666 95.2416C85.9436 115.896 84.3387 139.45 91.1704 161.233C98.002 183.015 112.771 201.434 132.548 212.836C152.325 224.238 175.665 227.791 197.939 222.789L191.757 195.261C176.389 198.712 160.285 196.261 146.64 188.394C132.994 180.527 122.804 167.818 118.091 152.79C113.377 137.761 114.484 121.509 121.193 107.258C127.901 93.0074 139.721 81.7986 154.308 75.8551C168.894 69.9115 185.181 69.6674 199.939 75.1712C214.697 80.6749 226.848 91.5245 233.98 105.568C241.113 119.611 242.707 135.822 238.445 150.986C234.184 166.149 224.38 179.157 210.976 187.43L225.794 211.439Z" fill="#00429A"/>
<path opacity="0.3" d="M99.9012 215.164C113.884 206.468 124.112 192.795 128.558 176.855C133.003 160.915 131.34 143.875 123.899 129.113C116.459 114.351 103.783 102.946 88.3875 97.1604C72.9917 91.375 56.0004 91.6316 40.7837 97.8793C25.5669 104.127 13.2365 115.909 6.23804 130.89C-0.760391 145.87 -1.91553 162.953 3.00175 178.751C7.91903 194.549 18.5495 207.908 32.7846 216.178C47.0197 224.448 63.8195 227.024 79.8517 223.396L75.4021 203.431C64.3405 205.934 52.7493 204.156 42.9276 198.451C33.1059 192.745 25.7712 183.528 22.3785 172.628C18.9858 161.727 19.7828 149.941 24.6114 139.605C29.4401 129.269 37.9477 121.14 48.4466 116.829C58.9456 112.518 70.669 112.341 81.2915 116.333C91.914 120.325 100.66 128.194 105.793 138.379C110.927 148.564 112.074 160.322 109.007 171.319C105.94 182.317 98.8832 191.751 89.2356 197.751L99.9012 215.164Z" fill="#1266D7"/>
</svg>
