<svg width="557" height="225" viewBox="0 0 557 225" fill="none" xmlns="http://www.w3.org/2000/svg">
<path opacity="0.3" d="M53.4139 16.7655C29.3978 31.588 11.8299 54.8956 4.19497 82.0653C-3.43995 109.235 -0.584177 138.282 12.1958 163.444C24.9759 188.607 46.7465 208.047 73.1895 217.908C99.6325 227.77 128.816 227.333 154.952 216.683C181.087 206.033 202.266 185.95 214.286 160.416C226.306 134.881 228.29 105.762 219.844 78.8333C211.399 51.9046 193.14 29.134 168.691 15.0379C144.241 0.941761 115.386 -3.44999 87.8502 2.73372L95.4925 36.7653C114.492 32.4988 134.4 35.5289 151.269 45.2547C168.139 54.9805 180.736 70.6914 186.564 89.2712C192.391 107.851 191.022 127.942 182.728 145.56C174.435 163.178 159.823 177.035 141.79 184.382C123.758 191.73 103.622 192.032 85.3772 185.228C67.1325 178.424 52.1115 165.011 43.2938 147.65C34.4761 130.288 32.5057 110.247 37.7735 91.5012C43.0413 72.7551 55.1625 56.6737 71.7328 46.4467L53.4139 16.7655Z" fill="#00429A"/>
<path opacity="0.3" d="M209.788 12.1931C192.322 22.9731 179.545 39.9241 173.992 59.6838C168.44 79.4436 170.517 100.569 179.811 118.869C189.106 137.169 204.939 151.307 224.17 158.479C243.402 165.651 264.626 165.333 283.634 157.588C302.641 149.843 318.044 135.236 326.786 116.666C335.528 98.0955 336.971 76.9178 330.828 57.3333C324.686 37.7488 311.407 21.1883 293.626 10.9366C275.844 0.684917 254.859 -2.50909 234.833 1.98816L240.391 26.7384C254.208 23.6355 268.687 25.8392 280.956 32.9125C293.224 39.9858 302.386 51.4119 306.624 64.9245C310.862 78.4371 309.867 93.0489 303.835 105.862C297.803 118.675 287.176 128.752 274.062 134.096C260.947 139.44 246.303 139.66 233.034 134.711C219.765 129.763 208.841 120.008 202.428 107.382C196.015 94.7553 194.582 80.1798 198.413 66.5463C202.244 52.9128 211.06 41.2172 223.111 33.7794L209.788 12.1931Z" fill="#1266D7"/>
<path opacity="0.3" d="M329.719 211.392C310.225 199.36 295.966 180.442 289.769 158.389C283.571 136.335 285.889 112.758 296.263 92.3342C306.636 71.91 324.307 56.1308 345.771 48.1263C367.234 40.1218 390.922 40.4768 412.136 49.1209C433.35 57.765 450.54 74.0667 460.297 94.7926C470.054 115.518 471.664 139.154 464.809 161.012C457.953 182.87 443.133 201.352 423.288 212.794C403.442 224.236 380.021 227.8 357.671 222.781L363.874 195.158C379.295 198.621 395.455 196.162 409.147 188.267C422.84 180.373 433.065 167.621 437.795 152.54C442.525 137.459 441.414 121.151 434.682 106.851C427.95 92.5506 416.09 81.303 401.453 75.3389C386.816 69.3748 370.472 69.1299 355.663 74.6526C340.854 80.1754 328.662 91.0625 321.505 105.154C314.347 119.246 312.748 135.514 317.024 150.73C321.3 165.946 331.138 178.999 344.588 187.3L329.719 211.392Z" fill="#00429A"/>
<path opacity="0.3" d="M456.378 215.093C442.343 206.334 432.076 192.562 427.614 176.507C423.152 160.452 424.821 143.288 432.29 128.419C439.759 113.55 452.482 102.063 467.935 96.2359C483.389 90.4087 500.444 90.6671 515.719 96.96C530.993 103.253 543.37 115.121 550.394 130.209C557.419 145.297 558.579 162.504 553.643 178.417C548.707 194.329 538.036 207.784 523.748 216.114C509.459 224.444 492.596 227.039 476.503 223.385L480.97 203.275C492.073 205.796 503.708 204.006 513.567 198.259C523.425 192.512 530.788 183.228 534.193 172.249C537.599 161.27 536.799 149.398 531.952 138.987C527.105 128.577 518.565 120.389 508.027 116.047C497.488 111.705 485.721 111.527 475.058 115.547C464.396 119.568 455.617 127.494 450.464 137.752C445.311 148.011 444.159 159.854 447.238 170.931C450.316 182.008 457.4 191.511 467.084 197.554L456.378 215.093Z" fill="#1266D7"/>
</svg>
